# xmcd CD database file
#
# Track frame offsets:
#	150
#	15071
#	34118
#	49027
#
# Disc length: 903 seconds
#
# Revision: 0
# Processed by: cddbd v1.5.1PL0 Copyright (c) Steve Scherf et al.
# Submitted via: CDex 1.51
#
DISCID=1f038504
DTITLE=長谷川静香&落合祐理香 - 双恋キャラクターソングシリーズ#5 雛菊るる&らら
DYEAR=2004
DGENRE=Anime
TTITLE0=遊んでくるく〜る♪
TTITLE1=おひさま・おひめさま
TTITLE2=遊んでくるく〜る♪(Off Vocal)
TTITLE3=おひさま・おひえさま(Off Vocal)
EXTD=YEAR: 2004
EXTT0=
EXTT1=
EXTT2=
EXTT3=
PLAYORDER=
